<svg width="184" height="188" viewBox="0 0 184 188" fill="none" xmlns="http://www.w3.org/2000/svg">
<path d="M34.6214 54.999C34.6214 54.999 26.262 58.3059 25.0327 66.3382C23.8034 74.3706 42.7989 97.8998 42.7989 97.8998L101.378 66.3333L82.8575 33.8301L34.6214 54.999Z" fill="#C7DCF9"/>
<path d="M47.5736 62.5916C47.5736 62.5916 41.4097 68.9202 39.519 75.9224C37.6283 82.9246 37.3849 95.4293 37.6996 100.113C46.895 108.622 83.2411 101.492 83.2411 101.492L118.267 60.2904C118.267 60.2904 112.329 49.0175 109.315 45.927C106.301 42.8365 96.53 38.9936 85.2572 43.5298C78.6409 52.9193 47.5736 62.5916 47.5736 62.5916Z" fill="#E1ECFF"/>
<g style="mix-blend-mode:multiply">
<path d="M44.8223 65.8639C44.8223 65.8639 58.4211 70.228 73.7286 64.315C89.0361 58.4019 91.8094 41.7471 91.8094 41.7471L85.2498 43.532L47.5735 62.5914L44.8223 65.8639Z" fill="#E1ECFF"/>
</g>
<path d="M100.181 116.952C100.181 116.952 117.374 117.062 122.206 118.297C127.037 119.531 139.824 148.472 145.115 151.242C150.406 154.013 154.901 149.411 160.73 145.993C166.56 142.576 171.902 138.44 172.069 136.714C172.237 134.988 169.761 128.092 167.619 126.7C165.478 125.309 159.26 125.21 155.943 127.335C151.07 114.058 144.142 94.6962 137.788 92.031C131.435 89.3658 112.182 88.0972 112.182 88.0972L100.181 116.952Z" fill="#E1ECFF"/>
<g style="mix-blend-mode:multiply" opacity="0.51">
<path d="M118.267 104.28C118.267 104.28 132.266 105.812 136.134 111.022C140.001 116.232 147.665 148.11 156.243 148.865C156.381 159.192 138.615 162.921 138.615 162.921L96.0284 115.602L118.267 104.28Z" fill="#E1ECFF"/>
</g>
<path d="M53.9881 114.341C53.9881 114.341 64.5603 136.516 74.149 142.564C83.7377 148.612 101.11 148.123 105.902 152.084C110.694 156.045 109.681 175.072 114.471 180.112C119.26 185.152 125.999 188.24 132.298 187.673C138.597 187.105 143.638 184.083 143.702 181.248C143.765 178.413 143.512 175.955 140.552 174.443C137.592 172.93 133.422 171.672 133.242 169.909C133.063 168.146 129.714 141.307 128.325 134.013C126.936 126.718 116.148 116.571 102.244 111.46C89.0779 100.435 68.8555 105.158 68.8555 105.158L53.9881 114.341Z" fill="#E1ECFF"/>
<g style="mix-blend-mode:multiply">
<path d="M57.0639 120.273C57.0639 120.273 69.1973 120.893 80.094 116.106C78.0115 105.018 71.5871 101.743 71.5871 101.743L53.9881 114.341L57.0639 120.273Z" fill="#E1ECFF"/>
</g>
<path d="M73.854 4.47394C64.3513 -0.612994 44.4363 -2.32912 32.1431 12.9169C19.8499 28.163 25.9768 43.9745 31.1424 51.3356C36.5515 59.0607 55.1437 70.8671 74.9874 59.7786C94.8311 48.6902 96.9111 16.8212 73.854 4.47394Z" fill="#E1ECFF"/>
<path d="M72.219 13.7973C80.6595 15.8134 86.1423 27.6567 83.3075 38.9959C80.4726 50.3352 70.7069 57.9594 59.7463 58.0209C48.7857 58.0823 37.8865 50.5982 37.9455 36.6036C38.0045 23.1549 53.8898 9.42091 72.219 13.7973Z" fill="#1C3177"/>
<g style="mix-blend-mode:multiply">
<path d="M47.9005 102.372C58.898 97.2682 50.6714 85.6143 61.6345 82.9639C76.0889 85.0193 80.0866 84.2817 80.0866 84.2817C80.0866 84.2817 52.4343 108.568 47.9005 102.372Z" fill="#E1ECFF"/>
</g>
<path d="M57.0639 71.2014L75.366 118.297L101.258 117.68L124.945 102.687L132.001 81.2671L114.867 29.8618L106.549 53.927L85.0039 71.0613L57.0639 71.2014Z" fill="#FF97C9"/>
<path d="M47.9005 102.372C53.9685 101.881 57.059 97.9295 58.898 96.1765C59.8348 95.2815 59.6479 94.4972 59.1759 91.9156C58.7038 89.3341 60.3413 86.6861 62.5786 85.5527C63.8079 88.8596 65.3175 89.4865 66.4829 89.3316C67.6483 89.1767 68.8457 82.2138 72.6566 82.2753C76.4675 82.3368 79.5236 87.3795 80.0325 89.8971C80.5414 92.4148 78.0803 99.5964 74.9923 104.637C71.9042 109.677 67.5475 115.917 57.74 117.869C47.9325 119.821 42.3563 114.813 39.1429 108.482C38.0586 106.345 37.6677 103.393 37.7021 100.103C37.7021 100.103 39.8977 103.002 47.9005 102.372Z" fill="#E1ECFF"/>
<path d="M120.767 47.5666C120.767 47.5666 121.935 51.3652 121.148 52.8453C120.362 54.3254 119.29 55.5498 118.503 57.4454C117.716 59.341 118.882 66.4858 122.346 67.7127C125.81 68.9395 128.677 65.7285 129.591 63.8698C130.506 62.0111 130 57.1307 128.645 53.7279C127.29 50.3252 124.743 47.301 120.767 47.5666Z" fill="#E1ECFF"/>
<path d="M124.75 0.370691L125.527 1.94422C125.574 2.03957 125.643 2.12211 125.729 2.18467C125.814 2.24723 125.914 2.28791 126.019 2.30318L127.757 2.54905C127.879 2.56645 127.993 2.61758 128.087 2.69662C128.181 2.77566 128.251 2.87946 128.289 2.99622C128.326 3.11298 128.331 3.23803 128.301 3.35716C128.272 3.47629 128.209 3.58474 128.121 3.67019L126.865 4.89951C126.788 4.97354 126.731 5.06508 126.698 5.16619C126.665 5.2673 126.657 5.37493 126.675 5.47975L126.97 7.2008C126.991 7.32149 126.978 7.44562 126.932 7.55914C126.886 7.67266 126.809 7.77105 126.71 7.84319C126.611 7.91532 126.494 7.95832 126.372 7.96732C126.25 7.97633 126.127 7.95097 126.019 7.89413L124.463 7.07787C124.369 7.02813 124.264 7.00214 124.158 7.00214C124.051 7.00214 123.947 7.02813 123.853 7.07787L122.297 7.89413C122.188 7.95166 122.065 7.97756 121.943 7.96889C121.82 7.96022 121.703 7.91732 121.603 7.84508C121.504 7.77285 121.427 7.67417 121.381 7.56027C121.335 7.44637 121.321 7.32182 121.343 7.2008L121.64 5.47975C121.658 5.37493 121.65 5.2673 121.617 5.16619C121.584 5.06508 121.527 4.97354 121.451 4.89951L120.194 3.67019C120.106 3.58474 120.044 3.47629 120.014 3.35716C119.985 3.23803 119.989 3.11298 120.027 2.99622C120.065 2.87946 120.135 2.77566 120.229 2.69662C120.323 2.61758 120.437 2.56645 120.558 2.54905L122.297 2.30318C122.402 2.28791 122.501 2.24723 122.587 2.18467C122.673 2.12211 122.742 2.03957 122.788 1.94422L123.565 0.370691C123.619 0.259552 123.704 0.165854 123.808 0.100306C123.913 0.0347583 124.034 0 124.158 0C124.281 0 124.402 0.0347583 124.507 0.100306C124.612 0.165854 124.696 0.259552 124.75 0.370691V0.370691Z" fill="#FEC272"/>
<path d="M41.5695 166.892L42.2211 168.212C42.2599 168.292 42.3179 168.361 42.39 168.414C42.462 168.466 42.5459 168.5 42.6341 168.512L44.0921 168.723C44.1937 168.738 44.2892 168.781 44.3677 168.847C44.4462 168.914 44.5045 169.001 44.5363 169.098C44.568 169.196 44.5717 169.301 44.5471 169.4C44.5225 169.5 44.4705 169.591 44.397 169.663L43.3422 170.69C43.2774 170.753 43.2292 170.831 43.2017 170.916C43.1743 171.002 43.1685 171.093 43.1849 171.182L43.4307 172.633C43.4476 172.734 43.436 172.838 43.3972 172.933C43.3584 173.028 43.2939 173.11 43.211 173.171C43.1281 173.231 43.03 173.267 42.9277 173.275C42.8254 173.283 42.7229 173.262 42.6317 173.215L41.3286 172.529C41.2496 172.488 41.1619 172.467 41.0729 172.467C40.9839 172.467 40.8961 172.488 40.8172 172.529L39.519 173.21C39.4279 173.258 39.3251 173.28 39.2224 173.272C39.1197 173.265 39.0211 173.229 38.9379 173.168C38.8546 173.107 38.7901 173.025 38.7516 172.929C38.7131 172.834 38.7021 172.729 38.72 172.628L38.9658 171.177C38.981 171.088 38.9744 170.997 38.9466 170.912C38.9188 170.826 38.8705 170.748 38.806 170.685L37.7537 169.658C37.6802 169.586 37.6282 169.495 37.6036 169.395C37.5789 169.296 37.5827 169.191 37.6144 169.093C37.6461 168.996 37.7045 168.909 37.783 168.843C37.8615 168.776 37.957 168.733 38.0586 168.718L39.5141 168.507C39.6026 168.495 39.6866 168.461 39.7591 168.409C39.8315 168.356 39.89 168.287 39.9296 168.207L40.5812 166.887C40.627 166.795 40.6978 166.717 40.7854 166.663C40.873 166.609 40.974 166.581 41.0769 166.582C41.1798 166.582 41.2805 166.611 41.3675 166.666C41.4546 166.721 41.5246 166.799 41.5695 166.892V166.892Z" fill="#FEC272"/>
<g style="mix-blend-mode:soft-light" opacity="0.48">
<path d="M64.8512 27.9338C70.902 26.6001 75.4246 23.784 74.9529 21.6438C74.4812 19.5035 69.1937 18.8497 63.1429 20.1833C57.0922 21.517 52.5695 24.3331 53.0413 26.4734C53.513 28.6136 58.8005 29.2675 64.8512 27.9338Z" fill="white"/>
</g>
<g style="mix-blend-mode:multiply">
<path d="M78.6311 96.9582C78.6311 96.9582 71.6707 90.7378 70.4094 90.7378C69.1481 90.7378 65.7896 95.6551 66.5469 96.9582C67.3041 98.2612 71.1937 102.529 75.4644 103.842C76.8486 101.202 78.6311 96.9582 78.6311 96.9582Z" fill="#E1ECFF"/>
</g>
<g style="mix-blend-mode:multiply" opacity="0.5">
<path d="M85.0039 71.0615L101.258 117.68L124.945 102.687L106.549 53.9272L85.0039 71.0615Z" fill="#FF97C9"/>
</g>
<g style="mix-blend-mode:multiply">
<path d="M129.719 142.917C127.283 144.936 124.545 146.559 121.606 147.729C118.85 148.791 117.918 150.965 118.751 154.953C119.585 158.94 120.052 165.158 121.773 166.796C123.494 168.433 129.414 167.563 132.483 163.757C131.521 156.258 129.719 142.917 129.719 142.917Z" fill="#E1ECFF"/>
</g>
<g style="mix-blend-mode:multiply">
<path d="M145.762 102.259C145.762 102.259 142.32 103.759 142.647 106.151C142.974 108.543 146.49 120.106 147.876 121.149C149.263 122.191 153.366 120.342 153.366 120.342C149.152 108.403 145.762 102.259 145.762 102.259Z" fill="#E1ECFF"/>
</g>
<path d="M0.505306 129.929C-2.23116 124.254 6.68633 118.181 14.2737 118.619C21.8611 119.057 25.0499 126.061 27.7372 128.675C33.3503 134.128 33.1733 139.463 29.2862 141.757C25.3991 144.051 4.12689 137.435 0.505306 129.929Z" fill="#99ADF9"/>
<path d="M153.57 42.0196C151.358 40.0822 153.634 30.9754 158.861 28.8438C164.089 26.7121 170.579 29.0429 171.966 32.6965C173.353 36.35 158.107 45.9879 153.57 42.0196Z" fill="#99ADF9"/>
<path d="M179.185 46.8931C178.051 48.5084 177.296 53.1085 179.689 53.9272C182.081 54.746 183.89 50.0131 183.05 47.5495C182.209 45.086 179.942 45.8137 179.185 46.8931Z" fill="#99ADF9"/>
<path opacity="0.44" d="M180.906 9.56355C179.121 10.4044 176.178 14.0186 177.85 15.9191C179.521 17.8197 183.438 14.6087 183.932 12.0541C184.426 9.49962 182.098 9.00298 180.906 9.56355Z" fill="#99ADF9"/>
<path opacity="0.44" d="M13.0591 153.804C11.5151 152.575 6.974 151.53 6.00529 153.868C5.03659 156.206 9.649 158.294 12.1519 157.62C14.6548 156.946 14.0869 154.625 13.0591 153.804Z" fill="#99ADF9"/>
<g style="mix-blend-mode:multiply" opacity="0.64">
<path d="M26.3923 127.118C23.646 127.634 24.0886 130.091 24.9688 132.316C25.849 134.541 28.9469 135.175 31.1326 133.142C29.714 129.766 26.3923 127.118 26.3923 127.118Z" fill="#99ADF9"/>
</g>
<g style="mix-blend-mode:multiply" opacity="0.64">
<path d="M10.6054 123.413C8.6385 123.632 7.03547 126.479 8.42214 128.788C9.80881 131.096 12.4519 132.778 13.9639 132.149C15.476 131.519 15.7292 128.116 14.6376 125.933C13.5459 123.75 12.4961 123.202 10.6054 123.413Z" fill="#99ADF9"/>
</g>
<g style="mix-blend-mode:multiply" opacity="0.64">
<path d="M165.829 30.8059C164.75 31.1501 163.656 32.3179 163.752 33.5792C163.848 34.8405 164.949 35.942 166.144 35.792C167.339 35.642 168.357 33.712 168.111 32.3253C167.865 30.9386 166.653 30.5452 165.829 30.8059Z" fill="#99ADF9"/>
</g>
<g style="mix-blend-mode:multiply" opacity="0.64">
<path d="M154.399 33.2646C154.399 33.2646 155.874 34.7398 155.628 36.4142C155.383 38.0885 152.84 37.9336 152.84 37.9336C152.84 37.9336 153.219 35.0791 154.399 33.2646Z" fill="#99ADF9"/>
</g>
</svg>
