<svg width="30" height="20" viewBox="0 0 30 20" fill="none" xmlns="http://www.w3.org/2000/svg">
<path d="M12.9683 12.194C12.9683 13.0524 12.2724 13.7483 11.4139 13.7483C10.5555 13.7483 9.85956 13.0524 9.85956 12.194C9.85956 11.3355 10.5555 10.6396 11.4139 10.6396C12.2724 10.6396 12.9683 11.3355 12.9683 12.194Z" stroke="url(#paint0_linear_325_2384)"/>
<path d="M20.3275 12.194C20.3275 13.0524 19.6316 13.7483 18.7732 13.7483C17.9147 13.7483 17.2188 13.0524 17.2188 12.194C17.2188 11.3355 17.9147 10.6396 18.7732 10.6396C19.6315 10.6396 20.3275 11.3355 20.3275 12.194Z" stroke="url(#paint1_linear_325_2384)"/>
<path d="M22.8458 2.61001C23.6677 2.61001 24.3336 3.2764 24.3336 4.09778C24.3336 4.28379 24.2994 4.46186 24.237 4.62606C24.4011 4.56379 24.579 4.5297 24.7648 4.5297C25.5869 4.5297 26.2528 5.19581 26.2529 6.01718C26.2529 6.01727 26.2529 6.01737 26.2529 6.01747H25.7529M22.8458 2.61001L25.7529 6.01747M22.8458 2.61001C22.0241 2.61001 21.3577 3.27614 21.3577 4.09778C21.3577 4.28376 21.3918 4.46183 21.4542 4.62603C21.2902 4.56378 21.1123 4.5297 20.9264 4.5297C20.1048 4.5297 19.4383 5.19539 19.4383 6.01747C19.4383 6.8394 20.1044 7.50524 20.9264 7.50524C21.1121 7.50524 21.29 7.47121 21.454 7.40904L22.8458 2.61001ZM25.7529 6.01747C25.7533 6.56318 25.3109 7.00524 24.7648 7.00524C24.2191 7.00524 23.7771 6.56315 23.7771 6.01747C23.7771 5.47176 24.2195 5.0297 24.7648 5.0297C25.3109 5.0297 25.7529 5.47211 25.7529 6.01747ZM18.6164 2.65583L18.8277 2.65583L18.9749 2.50427C19.8916 1.56083 21.1718 0.975098 22.5901 0.975098C25.0893 0.975098 27.1643 2.79445 27.5621 5.18145L28.9941 15.7713C28.9767 17.6127 27.4787 19.1 25.6333 19.1C24.4747 19.1 23.4524 18.5138 22.8476 17.6201L20.9376 14.5007C21.5521 13.9241 21.9388 13.1046 21.9388 12.1941C21.9388 10.449 20.5201 9.0293 18.774 9.0293C17.2134 9.0293 15.9158 10.1635 15.6573 11.6502H14.5311C14.2724 10.1636 12.9752 9.0293 11.4145 9.0293C9.66895 9.0293 8.24965 10.4486 8.24965 12.1941C8.24965 13.1042 8.63634 13.924 9.25089 14.5007L7.34055 17.6201C6.73581 18.5142 5.71418 19.1 4.55546 19.1C2.70975 19.1 1.21184 17.6126 1.19438 15.7713L2.62498 5.19592L2.62634 5.18766C3.02181 2.79767 5.09785 0.975203 7.59906 0.975203C9.0174 0.975203 10.2975 1.56093 11.2142 2.50439L11.3615 2.65594L11.5728 2.65594L18.6164 2.65583ZM9.85825 7.44857L10.3582 7.44857V6.94857V5.11035V4.61796L9.8659 4.61041L8.77117 4.59364L8.76449 3.65901L8.76094 3.16258H8.2645L6.4122 3.16258H5.9122V3.66258V4.59368L4.81763 4.61041L4.32527 4.61794V5.11035V6.94857V7.44857L4.82527 7.44857L5.9122 7.44857V8.44381V8.94381L6.4122 8.94381L8.2645 8.94381H8.76111L8.76449 8.44721L8.77129 7.44857L9.85825 7.44857ZM23.2771 6.01747C23.2771 6.20323 23.3111 6.38102 23.3733 6.54496L21.9142 6.01747H22.4142C22.4142 6.01734 22.4142 6.01721 22.4142 6.01708C22.4141 5.83131 22.38 5.65347 22.3177 5.48948C22.4818 5.55177 22.6598 5.58588 22.8458 5.58588C23.0316 5.58588 23.2095 5.55178 23.3735 5.48951C23.3112 5.65357 23.2771 5.83152 23.2771 6.01747Z" stroke="url(#paint2_linear_325_2384)"/>
<defs>
<linearGradient id="paint0_linear_325_2384" x1="13.4683" y1="12.194" x2="9.68016" y2="13.3043" gradientUnits="userSpaceOnUse">
<stop offset="0.02" stop-color="#FF65A6"/>
<stop offset="0.5" stop-color="#B37ED3"/>
<stop offset="1" stop-color="#5E64EB"/>
</linearGradient>
<linearGradient id="paint1_linear_325_2384" x1="20.8275" y1="12.194" x2="17.0394" y2="13.3043" gradientUnits="userSpaceOnUse">
<stop offset="0.02" stop-color="#FF65A6"/>
<stop offset="0.5" stop-color="#B37ED3"/>
<stop offset="1" stop-color="#5E64EB"/>
</linearGradient>
<linearGradient id="paint2_linear_325_2384" x1="29.4943" y1="10.0376" x2="5.36177" y2="20.6892" gradientUnits="userSpaceOnUse">
<stop offset="0.02" stop-color="#FF65A6"/>
<stop offset="0.5" stop-color="#B37ED3"/>
<stop offset="1" stop-color="#5E64EB"/>
</linearGradient>
</defs>
</svg>
